<svg width="479" height="476" viewBox="0 0 479 476" fill="none" xmlns="http://www.w3.org/2000/svg">
<circle cx="230.827" cy="201.478" r="151.657" fill="#FEAC31"/>
<path d="M140.092 401.627C140.092 401.627 153.485 425.563 176.186 419.37C177.041 419.136 177.946 419.313 178.675 419.807C185.045 424.125 197.063 427.614 213.375 420.934C214.255 420.573 215.262 420.662 216.054 421.187C229.092 429.831 247.404 432.813 263.583 419.838C264.071 419.446 264.729 419.344 265.312 419.579C273.911 423.036 279.034 422.827 289.64 418.762C291.483 418.053 292.768 417.78 293.592 417.85C296.182 418.065 301.621 421.903 312.462 418.901C308.713 429.957 280.003 438.594 280.003 438.594L185.969 446.123L136.211 426.266L140.092 401.627Z" fill="#93B4F6"/>
<path d="M57.6529 292.384C28.512 293.226 25.5105 312.147 25.5042 316.788C25.4915 321.981 27.3849 326.711 31.8238 327.933C37.2378 329.427 39.7644 324.172 36.9339 322.247C32.6469 319.34 33.4195 316.731 35.5471 315.484C38.5549 313.73 53.7206 314.965 47.7556 339.736C45.628 348.582 41.9363 349.804 40.7775 353.692C41.1891 364.261 46.2866 363.469 57.2793 363.469C76.9092 363.469 91.049 346.689 91.049 327.059C91.0364 307.436 77.2764 291.82 57.6529 292.384Z" fill="#93B4F6"/>
<path d="M429.386 407.149C440.575 384.132 432.046 357.973 412.555 341.389C399.929 330.65 405.203 319.005 411.308 317.966C414.873 317.358 419.153 322.424 414.714 326.369C413.492 327.452 415.037 330.358 419.596 328.218C422.895 326.667 427.676 317.175 419.71 309.728C412.238 302.737 402.512 301.503 392.241 305.213C374.22 311.729 368.641 329.067 371.725 350.514C373.998 366.344 378.082 430.946 378.082 430.946L411.51 430.376C419.476 423.784 425.238 415.685 429.386 407.149Z" fill="#93B4F6"/>
<path d="M409.788 366.262C412.738 371.353 420.147 369.549 418.102 364.736C414.834 357.023 421.787 355.01 424.288 356.707C431.387 361.513 434.559 378.724 414.777 386.589C404.804 390.553 382.945 390.863 358.984 386.221C348.96 398.911 357.407 458.706 416.519 457.75C478.72 456.75 486.654 389.084 471.786 360.899C462.541 343.378 437.643 332.309 419.153 338.204C409.395 341.307 402.303 353.344 409.788 366.262Z" fill="#93B4F6"/>
<path d="M299.81 404.743C300.715 404.496 301.412 404.135 301.672 403.616C302.444 402.052 299.544 400.621 298.29 397.721C296.821 394.339 298.126 390.8 300.576 389.552C303.882 387.868 309.27 389.071 312.278 392.915C315.476 396.993 325.126 415.704 293.826 431.864C318.718 439.792 337.031 410.816 337.392 403.281C338.582 378.553 321.048 368.016 306.294 368.574C292.541 369.093 287.057 379.56 287.5 390.148C287.855 398.69 295.314 405.984 299.81 404.743Z" fill="#93B4F6"/>
<path d="M112.604 437.886C114.244 437.886 116.315 437.873 118.677 437.829L126.49 451.81C152.776 468.565 171.43 479.222 217.807 461.625C245.08 451.278 251.742 447.726 266.211 446.459C272.929 457.034 288.633 463.753 308.035 465.861L336.442 451.893C336.442 451.893 343.356 419.592 336.575 398.151C323.41 426.754 302.07 427.779 291.185 419.225C290.432 418.629 289.355 418.667 288.671 419.345C270.96 436.834 257.745 430.876 251.577 427.222C250.798 426.76 249.836 426.754 249.032 427.171C223.418 440.596 203.009 429.901 196.803 425.873C195.708 425.158 194.271 425.329 193.346 426.253C191.047 428.539 186.007 432.294 177.427 432.738C170.398 433.105 158.443 428.058 151.477 417.325C135.457 392.636 124.35 355.149 133.127 333.619C136.318 325.793 142.676 322.937 147.786 323.038C154.359 323.171 157.252 328.212 152.123 329.358C149.097 330.035 149.457 335.462 155.517 335.373C162.939 335.266 167.587 327.927 167.587 321.867C167.587 302.819 151.287 291.82 126.446 291.82C97.4699 291.82 73.4138 318.637 73.4138 348.05C73.4075 377.457 83.634 437.886 112.604 437.886Z" fill="#93B4F6"/>
<path d="M155.429 470.408C171.62 475.708 190.047 476.177 218.593 465.893C238.514 458.719 249.291 449.208 266.217 446.459C269.535 451.677 275.038 455.951 282.092 459.206L318.939 453.241C318.939 453.241 338.436 422.378 326.367 433.219C315.469 443.002 300.855 437.107 293.984 434.821C292.914 434.466 291.743 434.656 290.824 435.315C278.236 444.344 266.217 446.466 254.674 441.489C253.249 440.874 251.672 440.741 250.501 441.767C236.07 454.381 221.132 449.037 210.544 442.375C209.259 441.565 207.606 441.761 206.479 442.774C185.437 461.745 160.647 447.726 154.213 440.64C153.428 439.779 152.25 439.405 151.104 439.621C131.271 443.262 122.337 428.824 122.337 428.824C115.283 444.769 139.788 461.169 155.429 470.408Z" fill="#93B4F6"/>
<path d="M310.315 440.608C299.525 448.004 279.945 453.431 272.1 453.393C290.045 471.788 338.531 473.865 364.348 467.153C400.467 457.756 411.244 436.074 411.225 412.392C411.168 347.284 350.562 342.737 345.807 325.412C343.616 317.421 347.149 314.097 350.353 312.507C354.032 310.684 358.459 312.742 358.528 314.496C358.617 316.889 354.292 316.896 356.242 320.853C357.237 322.88 360.01 323.177 362.967 321.93C367.786 319.897 370.42 314.679 369.591 309.519C367.216 294.701 355.229 284.671 338.639 284.671C319.781 284.671 302.805 297.557 298.505 315.939C292.825 340.217 318.179 357.935 328.602 381.681C340.912 411.144 322.466 432.275 310.315 440.608Z" fill="#93B4F6"/>
<path d="M85.7554 436.062C131.879 458.408 144.449 483.199 191.776 473.023C136.951 469.192 122.691 422.606 130.138 402.615C132.861 395.295 139.453 389.868 146.747 388.551C149.806 388 154.606 388.051 156.98 391.343C158.044 392.825 157.392 394.592 155.498 395.523C153.89 396.314 152.275 397.226 152.396 399.797C152.573 403.628 159.222 405.376 163.901 400.284C168.264 395.542 165.744 383.042 158.715 377.14C149.711 369.586 135.983 367.699 123.122 369.181C91.2454 372.847 67.6516 396.093 63.3394 429.85C69.4626 430.666 78.3784 432.49 85.7554 436.062Z" fill="#93B4F6"/>
<path d="M37.4026 417.18C42.69 413.83 42.1834 408.371 41.7718 406.928C40.689 403.122 35.4079 403.236 34.3124 407.035C33.9958 408.137 33.236 409.049 31.7353 409.435C26.5808 410.759 24.9724 397.942 31.8239 394.149C42.8419 388.051 57.6783 408.156 38.0801 430.401C58.2672 425.95 81.1899 432.383 99.68 441.692C109.4 431.015 116.296 415.432 116.296 399.462C116.296 366.661 88.7126 340.382 60.0086 338.742C30.2155 337.039 -0.426105 356.681 0.00448594 386.171C0.447741 416.502 27.1507 423.676 37.4026 417.18Z" fill="#93B4F6"/>
<path d="M251.033 188.39H191.662L192.84 193.038H251.869L251.033 188.39Z" fill="white"/>
<path d="M190.167 38.5633H107.848C106.797 38.5633 105.803 38.1137 105.05 37.2905C104.163 36.328 103.72 34.9729 103.834 33.5861C104.024 31.2812 105.854 29.4765 108 29.4765H110.996C112.218 29.4765 113.459 29.3689 114.257 28.5647C115.023 27.7985 115.39 26.4117 115.384 24.3348C115.358 18.0532 117.087 13.1204 120.519 9.682C125.249 4.93284 132.056 4.22363 135.691 4.22363C139.839 4.22363 141.776 7.00348 143.644 9.69467C145.734 12.7025 147.9 15.8053 153.326 15.8053H161.824C167.346 15.8053 170.81 18.4205 173.773 24.8223L173.855 25.006C175.59 28.761 176.566 30.5593 179.681 30.5593H189.984C191.256 30.5593 192.327 30.9963 193.08 31.8131C193.739 32.535 194.106 33.5038 194.106 34.5486C194.1 36.5433 192.751 38.5633 190.167 38.5633ZM107.994 30.743C106.506 30.743 105.227 32.0347 105.094 33.6874C105.005 34.7259 105.328 35.7264 105.98 36.4356C106.493 36.9929 107.158 37.2968 107.848 37.2968H190.167C191.997 37.2968 192.833 35.8721 192.833 34.555C192.833 33.1999 191.953 31.8321 189.984 31.8321H179.668C175.603 31.8321 174.324 29.0586 172.697 25.5442L172.614 25.3606C169.86 19.402 166.833 17.078 161.818 17.078H153.32C147.235 17.078 144.772 13.5447 142.6 10.4229C140.757 7.78234 139.168 5.49641 135.685 5.49641C132.246 5.49641 125.819 6.15496 121.412 10.5812C118.227 13.7789 116.625 18.4078 116.65 24.3411C116.657 26.7727 116.169 28.4444 115.156 29.4702C114.029 30.6037 112.42 30.7556 110.996 30.7556H107.994V30.743Z" fill="#403D3D"/>
<path d="M420.078 238.25H303.976C301.754 238.25 299.898 237.446 298.619 235.92C297.505 234.596 296.891 232.785 296.891 230.828C296.891 226.915 299.462 222.755 304.23 222.755H312.531C313.323 222.755 313.893 222.54 314.279 222.103C315.596 220.589 315.02 216.448 314.298 211.205C314.095 209.748 313.886 208.235 313.696 206.633L313.665 206.342C312.93 200.187 311.398 187.383 324.423 182.716C329.419 180.924 331.895 180.24 336.385 178.993C337.55 178.67 338.854 178.309 340.387 177.878C344.414 176.745 347.377 176.713 349.993 177.783C353.184 179.088 355.761 182.083 357.889 186.94C360.675 193.31 362.961 195.273 366.646 194.437C391.766 188.732 395.775 199.015 399.656 208.963C399.897 209.571 400.131 210.179 400.372 210.787C402.867 216.999 405.887 222.749 411.086 222.749H419.837C424.801 222.749 427.404 226.712 427.404 230.632C427.391 234.305 425.105 238.25 420.078 238.25ZM304.236 224.021C300.247 224.021 298.163 227.447 298.163 230.828C298.163 232.487 298.67 234.007 299.594 235.109C300.627 236.337 302.146 236.983 303.983 236.983H420.084C424.238 236.983 426.131 233.697 426.131 230.638C426.131 227.453 424.162 224.021 419.831 224.021H411.08C405.127 224.021 401.847 217.892 399.188 211.262C398.947 210.654 398.706 210.04 398.466 209.432C394.609 199.547 390.968 190.214 366.919 195.678C361.916 196.818 359.307 193.373 356.724 187.453C352.57 177.954 347.327 177.245 340.722 179.101C339.19 179.531 337.885 179.892 336.72 180.215C332.11 181.494 329.799 182.134 324.847 183.907C312.772 188.238 314.222 200.364 314.919 206.19L314.956 206.481C315.146 208.07 315.355 209.578 315.558 211.028C316.356 216.809 316.938 220.982 315.241 222.926C314.615 223.648 313.703 224.015 312.538 224.015H304.236V224.021Z" fill="#403D3D"/>
<path d="M163.654 250.04H59.1791C57.7353 250.04 56.3359 249.433 55.3481 248.381C54.3476 247.311 53.8473 245.912 53.9423 244.443C54.1196 241.695 56.4879 239.542 59.3374 239.542H64.4791C66.5688 239.542 68.2658 237.845 68.2658 235.755V227.377C68.2658 222.103 71.8625 217.6 77.0106 216.435L91.5177 213.162C96.8621 211.952 102.346 214.073 105.493 218.557C107.45 221.349 110.654 223.015 114.067 223.015H128.796C134.64 223.015 139.909 226.706 141.91 232.19C143.512 236.584 147.729 239.542 152.408 239.542H163.502C166.352 239.542 168.72 241.695 168.897 244.443C168.992 245.912 168.492 247.311 167.492 248.381C166.498 249.433 165.098 250.04 163.654 250.04ZM59.3374 240.808C57.1528 240.808 55.3417 242.442 55.2088 244.525C55.1391 245.64 55.5127 246.703 56.2726 247.514C57.0325 248.324 58.0646 248.774 59.1791 248.774H163.654C164.769 248.774 165.801 248.324 166.561 247.514C167.321 246.703 167.701 245.64 167.625 244.525C167.492 242.442 165.674 240.808 163.496 240.808H152.402C147.191 240.808 142.492 237.522 140.713 232.627C138.895 227.637 134.102 224.281 128.789 224.281H114.06C110.236 224.281 106.645 222.413 104.448 219.285C101.599 215.22 96.6278 213.301 91.79 214.396L77.2829 217.67C72.7174 218.702 69.5259 222.692 69.5259 227.377V235.755C69.5259 238.541 67.259 240.808 64.4728 240.808H59.3374V240.808Z" fill="#403D3D"/>
<path d="M111.952 423.449L110.78 422.961C113.972 415.343 115.656 407.219 115.656 399.462C115.656 384.138 109.545 369.365 98.4577 357.86C87.9019 346.911 73.876 340.174 59.9705 339.376L60.0464 338.109C74.2623 338.926 88.5984 345.803 99.3696 356.979C110.692 368.726 116.922 383.809 116.922 399.462C116.929 407.377 115.206 415.673 111.952 423.449Z" fill="white"/>
<path d="M129.992 428.995C127.092 419.383 126.921 409.441 129.543 402.4C132.304 394.991 139.009 389.311 146.633 387.931L146.861 389.178C139.668 390.476 133.342 395.84 130.733 402.843C128.207 409.638 128.384 419.275 131.208 428.634L129.992 428.995Z" fill="white"/>
<path d="M152.788 373.987C145.05 369.985 134.539 368.503 123.179 369.808C120.899 370.067 118.626 370.441 116.422 370.903L116.163 369.662C118.404 369.187 120.715 368.814 123.039 368.548C134.64 367.211 145.411 368.744 153.371 372.86L152.788 373.987Z" fill="white"/>
<path d="M194.106 450.999L193.688 449.803C198.089 448.258 202.249 445.731 206.061 442.293C207.41 441.077 209.392 440.887 210.886 441.83C214.255 443.952 217.567 445.611 220.72 446.744L220.29 447.935C217.048 446.763 213.66 445.073 210.209 442.901C209.189 442.261 207.834 442.4 206.91 443.236C202.971 446.789 198.665 449.404 194.106 450.999Z" fill="white"/>
<path d="M240.173 448.612L239.768 447.416C243.352 446.2 246.822 444.142 250.089 441.286C251.311 440.222 253.027 440.083 254.927 440.906C257.637 442.071 260.411 442.856 263.178 443.224L263.013 444.477C260.132 444.091 257.238 443.281 254.427 442.071C253.42 441.634 251.989 441.311 250.925 442.242C247.531 445.199 243.909 447.346 240.173 448.612Z" fill="white"/>
<path d="M279.433 442.324L278.977 441.14C282.719 439.702 286.575 437.568 290.451 434.789C291.534 434.01 292.933 433.794 294.174 434.212C294.605 434.358 295.061 434.51 295.548 434.681C298.29 435.618 302.045 436.904 306.104 437.575L305.895 438.822C301.735 438.132 297.916 436.828 295.137 435.878C294.655 435.713 294.199 435.555 293.769 435.416C292.908 435.124 291.939 435.276 291.179 435.821C287.228 438.664 283.276 440.855 279.433 442.324Z" fill="white"/>
<path d="M166.675 449.556C160.45 446.934 155.916 443.445 153.744 441.058C153.118 440.368 152.174 440.058 151.218 440.235C147.336 440.944 143.575 441.02 140.048 440.457L140.25 439.209C143.632 439.747 147.248 439.678 150.99 438.994C152.377 438.734 153.763 439.196 154.688 440.216C156.771 442.508 161.14 445.858 167.169 448.397L166.675 449.556Z" fill="white"/>
<path d="M173.539 470.516C159.678 466.507 148.045 458.795 139.889 448.207L140.89 447.435C148.875 457.807 160.285 465.361 173.887 469.3L173.539 470.516Z" fill="white"/>
<path d="M290.293 450.391L289.913 449.182C297.993 446.636 305.11 443.407 309.96 440.083C313.62 437.575 322.701 430.489 328.064 418.806C333.402 407.174 333.39 394.763 328.02 381.921L329.191 381.434C334.7 394.617 334.707 407.37 329.217 419.338C323.727 431.312 314.425 438.569 310.682 441.134C305.724 444.521 298.486 447.808 290.293 450.391Z" fill="white"/>
<path d="M401.841 445.51L400.828 444.743C407.312 436.144 410.598 425.259 410.586 412.386C410.554 377.799 393.109 361.101 379.988 351.552L380.735 350.526C390.189 357.409 397.218 364.919 402.221 373.5C408.597 384.423 411.839 397.511 411.852 412.386C411.865 425.538 408.496 436.683 401.841 445.51Z" fill="white"/>
<path d="M409.237 366.579C404.868 359.044 404.931 351.059 409.408 344.676L410.446 345.404C406.267 351.369 406.223 358.854 410.332 365.946L409.237 366.579Z" fill="white"/>
<path d="M415.018 387.171L414.55 385.993C426.144 381.383 428.607 374.006 429.038 370.017C429.595 364.894 427.499 359.632 423.94 357.225C423.301 356.795 422.262 356.662 421.236 356.877C420.552 357.023 419.292 357.447 418.507 358.695L417.437 358.023C418.203 356.807 419.457 355.965 420.977 355.642C422.357 355.351 423.731 355.554 424.656 356.181C428.588 358.84 430.912 364.59 430.304 370.162C429.836 374.424 427.233 382.314 415.018 387.171Z" fill="white"/>
<path d="M75.6555 334.942L74.427 334.639C76.466 326.394 80.3856 318.479 85.7743 311.754L86.7622 312.545C81.4874 319.125 77.6438 326.869 75.6555 334.942Z" fill="white"/>
<path d="M176.705 433.383C172.811 433.383 167.916 431.908 163.433 429.363L164.06 428.261C168.638 430.863 173.621 432.301 177.395 432.098C181.277 431.895 184.823 430.984 187.92 429.382L188.502 430.509C185.241 432.193 181.53 433.156 177.465 433.365C177.212 433.377 176.958 433.383 176.705 433.383Z" fill="white"/>
<path d="M213.489 433.308C209.075 432.39 204.795 430.895 200.774 428.869L201.344 427.735C205.27 429.711 209.443 431.167 213.742 432.067L213.489 433.308Z" fill="white"/>
<path d="M264.938 431.844C261.228 431.844 257.561 430.97 253.939 429.21L254.49 428.07C263.032 432.218 271.916 431.192 280.895 425.024L281.611 426.069C276.013 429.919 270.435 431.844 264.938 431.844Z" fill="white"/>
<path d="M305.154 424.563C303.755 424.563 302.355 424.442 300.962 424.202L301.177 422.954C308.998 424.322 317.09 421.593 323.961 415.273L324.816 416.204C318.87 421.675 312.018 424.563 305.154 424.563Z" fill="white"/>
<path d="M281.833 84.9907L276.716 80.3555L253.851 86.998L247.86 83.3949L220.429 91.5825L214.154 87.9795L201.198 93.9634L206.669 94.0331L213.457 92.1017L218.454 97.7691L245.758 89.5815L245.79 89.6132L251.052 95.2488L273.582 88.638L277.172 93.7291L302.621 86.5927C303.191 86.5927 303.457 85.8835 303.027 85.5099L300.215 83.0593C299.943 82.8187 299.93 82.3944 300.203 82.1475L303.122 79.4183C303.533 79.0384 303.261 78.3545 302.704 78.3545L281.833 84.9907Z" fill="black"/>
<path d="M275.614 97.7689L272.321 91.1137L249.924 98.4971L245.435 91.2847L216.921 99.9409L212.501 94.6345L200.945 94.6155L200.837 97.465L211.798 99.5229L217.035 107.672L244.244 99.5483L249.405 107.919L270.384 101.309L274.189 107.919L299.423 100.656C299.993 100.656 300.259 99.9472 299.828 99.5736L296.935 96.5658C296.662 96.3252 296.65 95.9009 296.922 95.654L299.93 91.1644C300.341 90.7845 300.069 90.1006 299.512 90.1006L275.614 97.7689Z" fill="black"/>
<path d="M212.4 247.368H239.293V350.21H185.12C179.51 350.21 174.964 345.663 174.964 340.053V331.764C174.964 325.9 176.268 320.106 178.782 314.806L212.4 247.368Z" fill="black"/>
<path d="M296.517 346.125C296.517 346.125 287.107 339.907 283.099 337.273C277.97 333.892 276.412 329.478 275.614 325.065L238.216 117.133H151.231L152.244 107.382H102.884L96.4505 147.332C94.9814 156.444 102.016 164.701 111.249 164.701H171.481C179.814 164.701 187.084 170.356 189.135 178.429L232.498 350.412H295.39C297.79 350.419 298.176 347.031 296.517 346.125Z" fill="#274D76"/>
<path d="M210.209 120.75H188.439V89.627H194.98L210.209 120.75Z" fill="#EC8C92"/>
<path d="M184.082 87.6572V106.603C184.082 108.11 185.304 109.339 186.818 109.339C194.29 109.339 200.027 103.298 200.096 93.7931L200.267 93.6792L184.082 87.6572Z" fill="#F2BDBA"/>
<path d="M144.267 114.131L139.087 146.353L140.338 146.554L145.517 114.332L144.267 114.131Z" fill="black"/>
<path d="M204.282 86.4099L186.64 73.0869C185.589 72.3017 184.088 73.0489 184.088 74.366V87.6637L200.274 93.6793L204.073 91.197C205.073 90.5448 205.656 89.3607 205.415 88.1892C205.27 87.5053 204.89 86.8658 204.282 86.4099Z" fill="#93B4F6"/>
<path d="M200.096 93.7927L184.082 89.5691V85.0605L201.198 93.0708L200.096 93.7927Z" fill="black"/>
<path d="M218.916 117.133H151.23L152.237 107.382H144.202L142.714 117.133L215.23 162.58L218.916 117.133Z" fill="#93B4F6"/>
<path d="M216.896 142.045L218.916 117.134H177.148L216.896 142.045Z" fill="white"/>
<path d="M156.986 116.848L145.107 123.086C140.079 125.726 133.868 123.643 131.449 118.501L125.693 106.28L152.814 96.9842C156.043 95.8761 159.418 98.2127 159.532 101.619L159.861 111.909C159.925 113.974 158.81 115.892 156.986 116.848Z" fill="#EC8C92"/>
<path d="M150.116 85.8271V102.164L187.476 95.4205C188.148 95.2748 188.622 94.6796 188.622 93.9894C188.622 93.3055 188.148 92.7103 187.476 92.5583L150.116 85.8271Z" fill="#274D76"/>
<path d="M144.265 116.88C142.486 116.994 138.053 117.291 137.692 114.087C135.001 117.678 126.123 118.336 125.237 114.132C123.305 117.564 115.162 119.071 112.091 114.087C108.14 117.057 104.366 117.051 101.675 116.88C97.9386 116.639 94.8992 113.847 94.8992 110.104V90.4302C94.8992 77.9241 105.037 73.0166 117.543 73.0166H136.977C146.83 73.0166 154.821 75.7774 154.821 85.6304V106.324C154.815 112.156 150.084 116.513 144.265 116.88Z" fill="#F2BDBA"/>
<path d="M92.6384 110.827C88.4908 111.454 79.7839 112.511 79.7839 112.511V75.3096C79.7839 75.3096 88.4971 76.2657 92.6384 76.9939C98.635 78.0578 103.669 81.9331 103.669 88.0247V99.7899C103.669 105.888 98.6603 109.915 92.6384 110.827Z" fill="#274D76"/>
<path d="M30.6018 55.5654L30.2915 131.527L67.9492 123.111C77.6059 120.965 84.4826 112.403 84.4826 102.506V84.548C84.4826 74.6507 77.6122 66.0896 67.9492 63.9429L30.6018 55.5654Z" fill="#93B4F6"/>
<path d="M29.975 131.545C36.805 131.545 42.3418 114.526 42.3418 93.5328C42.3418 72.5392 36.805 55.5205 29.975 55.5205C23.1449 55.5205 17.6082 72.5392 17.6082 93.5328C17.6082 114.526 23.1449 131.545 29.975 131.545Z" fill="#274D76"/>
<path d="M285.227 45.2509H227.097V8.75195H277.742C281.877 8.75195 285.227 12.1017 285.227 16.2366V45.2509Z" fill="#74BAAB"/>
<path d="M285.17 21.6506V18.0096C285.17 17.1927 284.511 16.5342 283.694 16.5342C282.877 16.5342 282.219 17.1927 282.219 18.0096V50.6585C282.219 57.1617 287.487 62.4301 293.99 62.4301H354.476C357.775 62.4301 359.193 58.2508 356.584 56.2372L339.525 43.0852C338.367 42.1923 338.253 40.4763 339.291 39.4441L349.214 29.5279C350.645 28.0968 349.632 25.6589 347.612 25.6589H289.178C286.968 25.6589 285.17 23.8669 285.17 21.6506Z" fill="#74BAAB"/>
<path d="M235.373 350.426L227.87 4.85742H224.868V350.426H235.373Z" fill="#FFF3A1"/>
<path d="M224.868 406.206V439.558C228.876 439.995 233.075 439.343 237.311 437.43L236.627 406.212H224.868V406.206Z" fill="#FFF3A1"/>
<path d="M226.274 7.19339C224.285 7.19339 222.677 5.58501 222.677 3.5967C222.677 1.60838 224.285 0 226.274 0C228.262 0 229.87 1.60838 229.87 3.5967C229.87 5.57868 228.262 7.19339 226.274 7.19339Z" fill="#FFF3A1"/>
<path d="M206.194 144.545L203.731 143.842C200.711 142.981 198.963 139.834 199.818 136.813L202.363 127.879C203.516 123.839 207.72 121.502 211.76 122.654L212.381 122.832C215.401 123.693 217.155 126.84 216.294 129.861L213.223 140.632C212.362 143.652 209.215 145.406 206.194 144.545Z" fill="#EC8C92"/>
<path d="M216.769 163.877H290.337C295.681 163.877 300.019 159.54 300.019 154.196V138.308C300.019 123.459 287.981 111.428 273.138 111.428H227.185C214.692 111.428 206.068 119.242 207.815 128.93C205.01 131.526 205.187 137.782 207.771 140.854C205.681 144.381 206.46 150.808 209.829 152.391C208.107 155.823 210.272 163.877 216.769 163.877Z" fill="#F2BDBA"/>
<path d="M273.138 111.428H240.876C247.968 111.428 253.724 117.177 253.724 124.276V155.481C253.724 160.122 249.962 163.884 245.321 163.884H290.343C295.694 163.884 300.025 159.546 300.025 154.202V138.314C300.019 123.459 287.981 111.428 273.138 111.428Z" fill="#274D76"/>
<path d="M29.7725 126.036C34.9099 126.036 39.0745 111.484 39.0745 93.5326C39.0745 75.5815 34.9099 61.0293 29.7725 61.0293C24.6351 61.0293 20.4705 75.5815 20.4705 93.5326C20.4705 111.484 24.6351 126.036 29.7725 126.036Z" fill="black"/>
<path d="M195.189 96.6555C194.91 96.3199 194.594 96.0666 194.233 95.883C193.365 95.4334 192.314 95.4271 191.212 95.4207H191.117L191.13 94.1543H191.219C192.422 94.167 193.669 94.1733 194.809 94.7622C195.322 95.0218 195.771 95.3891 196.158 95.8513L195.189 96.6555Z" fill="black"/>
<path d="M187.799 103.133C187.609 103.133 187.419 103.133 187.236 103.133H186.913L186.919 101.867H187.242C188.825 101.879 190.617 101.892 191.472 100.917L192.428 101.753C191.313 103.019 189.502 103.133 187.799 103.133Z" fill="black"/>
<path d="M203.972 116.5H183.607V117.766H203.972V116.5Z" fill="black"/>
<path d="M202.142 121.889H192.498V123.155H202.142V121.889Z" fill="black"/>
<path d="M226.274 7.8266C223.944 7.8266 222.044 5.92694 222.044 3.59668H223.31C223.31 5.23039 224.64 6.56015 226.274 6.56015C227.908 6.56015 229.237 5.23039 229.237 3.59668H230.504C230.504 5.92694 228.61 7.8266 226.274 7.8266Z" fill="black"/>
<path d="M225.501 412.69H224.235V433.707H225.501V412.69Z" fill="black"/>
<path d="M284.777 352.857C284.619 352.844 284.467 352.838 284.308 352.838H178.009C177.851 352.838 177.693 352.844 177.541 352.857C173.9 353.123 171.677 356.65 172.994 359.74C175.458 365.515 183.67 384.676 188.926 395.764C189.597 397.182 192.377 402.425 193.226 403.458C196.879 407.922 201.293 408.517 203.896 408.517H226.647H235.683H258.435C261.038 408.517 265.451 407.922 269.105 403.458C269.947 402.425 272.727 397.182 273.404 395.764C278.66 384.676 286.873 365.515 289.336 359.74C290.641 356.65 288.418 353.129 284.777 352.857Z" fill="#93B4F6"/>
<path d="M258.429 407.891H203.889V409.157H258.429V407.891Z" fill="black"/>
<path d="M269.478 398.74H260.499V397.474H269.478V398.74ZM259.011 398.74H247.411V397.474H258.055L268.592 360.544L269.808 360.892L259.011 398.74ZM240.103 398.74H229.199V397.474H239.008L244.314 359.879L245.568 360.057L240.103 398.74ZM222.582 398.74H210.988V397.474H221.094L215.078 360.05L216.326 359.848L222.582 398.74ZM203.68 398.74H192.833V397.474H201.964L191.168 362.165L192.377 361.792L203.68 398.74Z" fill="black"/>
<path d="M29.5823 91.0073C29.5823 99.3025 30.5384 106.027 28.1639 106.027C25.7893 106.027 23.8643 99.3025 23.8643 91.0073C23.8643 82.7121 25.7893 75.9873 28.1639 75.9873C30.5384 75.981 29.5823 82.7121 29.5823 91.0073Z" fill="#74BAAB"/>
<path d="M282.852 19.4336H281.585V52.3485H282.852V19.4336Z" fill="black"/>
<path d="M209.905 127.271L209.208 126.214C213.502 123.377 218.093 120.622 218.137 120.591L218.789 121.674C218.738 121.712 214.179 124.453 209.905 127.271Z" fill="black"/>
<path d="M210.538 139.112L209.873 138.036C214.306 135.313 219.213 132.432 219.264 132.406L219.904 133.495C219.859 133.521 214.958 136.396 210.538 139.112Z" fill="black"/>
<path d="M212.241 151.207L211.621 150.105C215.053 148.161 219.251 145.901 219.289 145.882L219.891 146.996C219.846 147.022 215.661 149.276 212.241 151.207Z" fill="black"/>
<path d="M138.554 112.948L137.458 112.321C138.212 111.004 138.61 109.503 138.61 107.983V98.124H139.877V107.983C139.871 109.718 139.415 111.441 138.554 112.948Z" fill="black"/>
<path d="M126.313 112.289L125.135 111.827C125.528 110.814 125.731 109.743 125.731 108.648V98.0479H126.997V108.648C126.997 109.908 126.763 111.13 126.313 112.289Z" fill="black"/>
<path d="M112.959 112.492L111.838 111.896C112.503 110.643 112.851 109.231 112.851 107.806V98.4404H114.117V107.806C114.124 109.439 113.725 111.061 112.959 112.492Z" fill="black"/>
<path d="M225.381 25.3984H224.115V105.374H225.381V25.3984Z" fill="black"/>
<path d="M225.381 165.639H224.115V245.615H225.381V165.639Z" fill="black"/>
</svg>
